HIERARCHY
ROOT hip
{
	OFFSET 0.000000 0.000000 0.000000 
	CHANNELS 6 Xposition Yposition Zposition Xrotation Zrotation Yrotation
	JOINT abdomen
	{
		OFFSET 0.000000 3.402643 0.000000 
		CHANNELS 3 Xrotation Zrotation Yrotation
		JOINT chest
		{
			OFFSET 0.000000 8.438565 -0.680529 
			CHANNELS 3 Xrotation Zrotation Yrotation
			JOINT neck
			{
				OFFSET 0.000000 10.207942 -0.272212 
				CHANNELS 3 Xrotation Zrotation Yrotation
				JOINT head
				{
					OFFSET 0.000000 3.130431 0.000000 
					CHANNELS 3 Xrotation Zrotation Yrotation
					End Site
					{
						OFFSET 0.000000 3.130435 0.000000 
					}
				}
			}
			JOINT lCollar
			{
				OFFSET 3.470700 6.669187 -0.816635 
				CHANNELS 3 Yrotation Zrotation Xrotation
				JOINT lShldr
				{
					OFFSET 3.198488 0.000000 0.000000 
					CHANNELS 3 Zrotation Yrotation Xrotation
					JOINT lForeArm
					{
						OFFSET 10.139888 0.000000 0.000000 
						CHANNELS 3 Yrotation Zrotation Xrotation
						JOINT lHand
						{
							OFFSET 8.370511 0.000000 0.000000 
							CHANNELS 3 Zrotation Yrotation Xrotation
							End Site
							{
								OFFSET 4.083176 0.000000 0.000000 
							}
						}
					}
				}
			}
			JOINT rCollar
			{
				OFFSET -3.470700 6.669187 -0.816635 
				CHANNELS 3 Yrotation Zrotation Xrotation
				JOINT rShldr
				{
					OFFSET -3.198488 0.000000 0.000000 
					CHANNELS 3 Zrotation Yrotation Xrotation
					JOINT rForeArm
					{
						OFFSET -10.139888 0.000000 0.000000 
						CHANNELS 3 Yrotation Zrotation Xrotation
						JOINT rHand
						{
							OFFSET -8.370511 0.000000 0.000000 
							CHANNELS 3 Zrotation Yrotation Xrotation
							End Site
							{
								OFFSET -4.083176 0.000000 0.000000 
							}
						}
					}
				}
			}
		}
	}
	JOINT lThigh
	{
		OFFSET 5.308129 -1.633274 1.361059 
		CHANNELS 3 Xrotation Zrotation Yrotation
		JOINT lShin
		{
			OFFSET -2.041588 -20.007561 0.000000 
			CHANNELS 3 Xrotation Zrotation Yrotation
			JOINT lFoot
			{
				OFFSET 0.000000 -19.190928 -1.224953 
				CHANNELS 3 Xrotation Yrotation Zrotation
				End Site
				{
					OFFSET 0.000000 -2.449906 4.627600 
				}
			}
		}
	}
	JOINT rThigh
	{
		OFFSET -5.308129 -1.633274 1.361059 
		CHANNELS 3 Xrotation Zrotation Yrotation
		JOINT rShin
		{
			OFFSET 2.041588 -20.007561 0.000000 
			CHANNELS 3 Xrotation Zrotation Yrotation
			JOINT rFoot
			{
				OFFSET 0.000000 -19.190928 -1.224953 
				CHANNELS 3 Xrotation Yrotation Zrotation
				End Site
				{
					OFFSET 0.000000 -2.449906 4.627600 
				}
			}
		}
	}
}
MOTION
Frames: 8
Frame Time: 0.016667
-48.233650 73.940681 -7.665333 -0.625186 -1.396400 -84.867599 -19.512199 -0.214148 2.655360 17.275000 -0.867716 1.241150 4.838537 3.205994 0.425800 7.799480 6.238410 2.053370 2.000000 -2.000000 0.000000 -88.505096 0.543128 157.382004 23.193600 -0.340515 0.053905 0.047912 -0.032267 -148.522995 -2.000000 2.000000 0.000000 -99.922501 -179.792007 5.312020 -36.797298 0.324326 0.081894 -0.054750 -0.010630 -133.123001 -15.778736 -0.048449 23.789820 35.649250 2.169232 2.780310 -23.724371 26.741934 12.460168 -6.766850 6.771176 5.496489 30.718891 -3.182111 -2.151474 -27.192669 -24.197241 -10.683833 
-48.468105 73.886986 -7.516226 -0.527573 -1.689380 -81.087997 -19.487000 -0.129562 2.324500 17.646400 -0.351109 1.072540 6.048069 3.634695 0.181130 8.176460 6.595220 2.208660 2.000000 -2.000000 0.000000 -88.834503 -0.029132 154.697006 20.683800 -0.342752 0.048350 0.046849 -0.026568 -146.453003 -2.000000 2.000000 0.000000 -100.303001 179.912994 4.267800 -37.109798 0.323878 0.082490 -0.054638 -0.008773 -133.787003 -15.000229 -1.070929 21.312115 34.106396 2.216661 2.700602 -24.968300 26.419168 12.877087 -5.864911 7.032694 4.615376 30.706820 -3.197902 -2.136293 -28.780046 -24.755957 -11.919213 
-48.626839 73.827339 -7.292751 -0.957576 -1.933320 -78.249001 -19.735500 -0.389821 2.826760 17.558500 -0.409595 1.271450 6.674810 3.877891 -0.070821 8.226440 6.672630 2.239480 2.000000 -2.000000 0.000000 -88.582901 -0.814319 148.156006 17.578300 -0.345180 0.041351 0.044919 -0.009566 -140.339996 -2.000000 2.000000 0.000000 -99.697403 -179.731003 2.343120 -37.139099 0.323835 0.082546 -0.054641 -0.008828 -133.766998 -13.851644 -2.442717 18.952084 32.472050 2.284146 2.587485 -24.893738 25.133892 12.256044 -5.504218 6.617262 3.997133 31.622734 -3.187689 -2.181935 -30.187353 -24.735584 -12.734708 
-48.773102 73.722855 -7.047944 -0.215082 -2.695290 -75.927399 -19.795601 -0.314456 3.278680 17.548500 -0.819182 1.517650 7.245622 3.205864 0.244300 8.419270 6.319990 2.167020 2.000000 -2.000000 0.000000 -87.927299 -0.630937 147.080994 16.357599 -0.346030 0.038565 0.044867 -0.008665 -140.016998 -2.000000 2.000000 0.000000 -98.818398 -179.608002 0.448222 -36.982800 0.324060 0.082248 -0.054789 -0.011203 -132.917999 -13.012025 -1.792168 17.410023 32.561176 2.379299 2.543612 -24.758499 22.571697 10.852296 -4.794687 7.306335 2.895291 32.345718 -3.145324 -2.239986 -30.778223 -24.494287 -13.080070 
-48.831181 73.701401 -6.779816 -1.016650 -2.577720 -73.802002 -19.896200 -0.709226 3.839660 17.519199 -0.867920 1.715970 7.814066 3.102374 0.296351 8.595900 6.298640 2.194580 2.000000 -2.000000 0.000000 -87.427101 -0.565834 145.440002 15.508000 -0.346586 0.036615 0.044748 -0.006070 -139.089996 -2.000000 2.000000 0.000000 -98.261703 179.880997 -0.693073 -36.562901 0.324660 0.081446 -0.054872 -0.012321 -132.518005 -12.351865 -2.883234 17.340233 31.550898 2.372307 2.492721 -22.922220 21.457651 9.681067 -5.807632 5.736997 1.289267 35.310970 -2.981947 -2.447211 -30.040009 -22.848883 -12.042179 
-48.797928 73.671631 -6.514574 -1.739920 -2.489090 -70.949898 -19.831100 -1.118750 3.943220 17.450800 -0.906869 1.699590 7.607608 3.142224 0.600932 8.468080 6.290270 2.277550 2.000000 -2.000000 0.000000 -87.142502 -0.577583 144.425003 15.136900 -0.346820 0.035762 0.044665 -0.003227 -138.074005 -2.000000 2.000000 0.000000 -97.753899 179.723007 -1.444650 -37.012100 0.324018 0.082304 -0.054939 -0.013166 -132.214996 -11.904256 -4.192646 15.945265 30.833553 2.379396 2.449904 -22.309225 20.353163 8.924960 -7.546319 3.946500 -0.835522 39.652267 -2.735212 -2.750766 -27.331390 -20.384079 -9.710854 
-48.768715 73.615013 -6.336158 -2.483270 -2.722050 -67.538399 -19.643101 -1.439370 3.810610 17.128700 -0.682371 1.583840 7.759197 2.940577 0.921736 8.565900 6.250290 2.334000 2.000000 -2.000000 0.000000 -86.820503 -0.674764 144.669006 15.058800 -0.346869 0.035581 0.044654 -0.002571 -137.839996 -2.000000 2.000000 0.000000 -97.646500 179.431000 -1.199810 -37.676201 0.323057 0.083564 -0.054906 -0.012757 -132.360992 -11.214354 -5.115060 14.941312 30.352278 2.374485 2.409227 -20.918167 19.120905 7.885371 -9.064158 2.644408 -1.306495 44.420738 -2.423346 -3.055018 -24.555407 -18.049030 -7.617198 
-48.820957 73.561203 -6.214193 -3.783140 -2.582260 -63.384201 -19.308800 -1.871540 3.769410 17.031200 -0.263173 1.471290 7.327557 2.401759 1.314093 8.474850 5.998090 2.245190 2.000000 -2.000000 0.000000 -86.344597 -1.208100 146.584000 15.088100 -0.346851 0.035649 0.044747 -0.006043 -139.080002 -2.000000 2.000000 0.000000 -97.558601 179.595993 -1.629890 -38.613701 0.321675 0.085323 -0.055281 -0.007049 -130.906006 -10.202398 -6.660006 13.986912 29.244053 2.357494 2.347896 -18.058157 19.017986 6.953249 -10.594230 0.892546 -0.931442 49.002209 -2.153160 -3.299814 -23.571592 -14.166731 -5.711591 
